FILE "Emit Vol. 2 - Inochigake no Tabi (1995)(Koei)(JP)(Disc 2 of 2)(Track 01 of 98).bin" BINARY
  TRACK 01 AUDIO
    INDEX 01 00:00:00
FILE "Emit Vol. 2 - Inochigake no Tabi (1995)(Koei)(JP)(Disc 2 of 2)(Track 02 of 98).bin" BINARY
  TRACK 02 AUDIO
    INDEX 00 00:00:00
    INDEX 01 00:02:00
FILE "Emit Vol. 2 - Inochigake no Tabi (1995)(Koei)(JP)(Disc 2 of 2)(Track 03 of 98).bin" BINARY
  TRACK 03 AUDIO
    INDEX 00 00:00:00
    INDEX 01 00:02:00
FILE "Emit Vol. 2 - Inochigake no Tabi (1995)(Koei)(JP)(Disc 2 of 2)(Track 04 of 98).bin" BINARY
  TRACK 04 AUDIO
    INDEX 00 00:00:00
    INDEX 01 00:02:00
FILE "Emit Vol. 2 - Inochigake no Tabi (1995)(Koei)(JP)(Disc 2 of 2)(Track 05 of 98).bin" BINARY
  TRACK 05 AUDIO
    INDEX 01 00:00:00
FILE "Emit Vol. 2 - Inochigake no Tabi (1995)(Koei)(JP)(Disc 2 of 2)(Track 06 of 98).bin" BINARY
  TRACK 06 AUDIO
    INDEX 01 00:00:00
FILE "Emit Vol. 2 - Inochigake no Tabi (1995)(Koei)(JP)(Disc 2 of 2)(Track 07 of 98).bin" BINARY
  TRACK 07 AUDIO
    INDEX 01 00:00:00
FILE "Emit Vol. 2 - Inochigake no Tabi (1995)(Koei)(JP)(Disc 2 of 2)(Track 08 of 98).bin" BINARY
  TRACK 08 AUDIO
    INDEX 01 00:00:00
FILE "Emit Vol. 2 - Inochigake no Tabi (1995)(Koei)(JP)(Disc 2 of 2)(Track 09 of 98).bin" BINARY
  TRACK 09 AUDIO
    INDEX 01 00:00:00
FILE "Emit Vol. 2 - Inochigake no Tabi (1995)(Koei)(JP)(Disc 2 of 2)(Track 10 of 98).bin" BINARY
  TRACK 10 AUDIO
    INDEX 01 00:00:00
FILE "Emit Vol. 2 - Inochigake no Tabi (1995)(Koei)(JP)(Disc 2 of 2)(Track 11 of 98).bin" BINARY
  TRACK 11 AUDIO
    INDEX 01 00:00:00
FILE "Emit Vol. 2 - Inochigake no Tabi (1995)(Koei)(JP)(Disc 2 of 2)(Track 12 of 98).bin" BINARY
  TRACK 12 AUDIO
    INDEX 01 00:00:00
FILE "Emit Vol. 2 - Inochigake no Tabi (1995)(Koei)(JP)(Disc 2 of 2)(Track 13 of 98).bin" BINARY
  TRACK 13 AUDIO
    INDEX 01 00:00:00
FILE "Emit Vol. 2 - Inochigake no Tabi (1995)(Koei)(JP)(Disc 2 of 2)(Track 14 of 98).bin" BINARY
  TRACK 14 AUDIO
    INDEX 01 00:00:00
FILE "Emit Vol. 2 - Inochigake no Tabi (1995)(Koei)(JP)(Disc 2 of 2)(Track 15 of 98).bin" BINARY
  TRACK 15 AUDIO
    INDEX 01 00:00:00
FILE "Emit Vol. 2 - Inochigake no Tabi (1995)(Koei)(JP)(Disc 2 of 2)(Track 16 of 98).bin" BINARY
  TRACK 16 AUDIO
    INDEX 01 00:00:00
FILE "Emit Vol. 2 - Inochigake no Tabi (1995)(Koei)(JP)(Disc 2 of 2)(Track 17 of 98).bin" BINARY
  TRACK 17 AUDIO
    INDEX 00 00:00:00
    INDEX 01 00:02:00
FILE "Emit Vol. 2 - Inochigake no Tabi (1995)(Koei)(JP)(Disc 2 of 2)(Track 18 of 98).bin" BINARY
  TRACK 18 AUDIO
    INDEX 01 00:00:00
FILE "Emit Vol. 2 - Inochigake no Tabi (1995)(Koei)(JP)(Disc 2 of 2)(Track 19 of 98).bin" BINARY
  TRACK 19 AUDIO
    INDEX 01 00:00:00
FILE "Emit Vol. 2 - Inochigake no Tabi (1995)(Koei)(JP)(Disc 2 of 2)(Track 20 of 98).bin" BINARY
  TRACK 20 AUDIO
    INDEX 01 00:00:00
FILE "Emit Vol. 2 - Inochigake no Tabi (1995)(Koei)(JP)(Disc 2 of 2)(Track 21 of 98).bin" BINARY
  TRACK 21 AUDIO
    INDEX 01 00:00:00
FILE "Emit Vol. 2 - Inochigake no Tabi (1995)(Koei)(JP)(Disc 2 of 2)(Track 22 of 98).bin" BINARY
  TRACK 22 AUDIO
    INDEX 01 00:00:00
FILE "Emit Vol. 2 - Inochigake no Tabi (1995)(Koei)(JP)(Disc 2 of 2)(Track 23 of 98).bin" BINARY
  TRACK 23 AUDIO
    INDEX 01 00:00:00
FILE "Emit Vol. 2 - Inochigake no Tabi (1995)(Koei)(JP)(Disc 2 of 2)(Track 24 of 98).bin" BINARY
  TRACK 24 AUDIO
    INDEX 01 00:00:00
FILE "Emit Vol. 2 - Inochigake no Tabi (1995)(Koei)(JP)(Disc 2 of 2)(Track 25 of 98).bin" BINARY
  TRACK 25 AUDIO
    INDEX 01 00:00:00
FILE "Emit Vol. 2 - Inochigake no Tabi (1995)(Koei)(JP)(Disc 2 of 2)(Track 26 of 98).bin" BINARY
  TRACK 26 AUDIO
    INDEX 01 00:00:00
FILE "Emit Vol. 2 - Inochigake no Tabi (1995)(Koei)(JP)(Disc 2 of 2)(Track 27 of 98).bin" BINARY
  TRACK 27 AUDIO
    INDEX 01 00:00:00
FILE "Emit Vol. 2 - Inochigake no Tabi (1995)(Koei)(JP)(Disc 2 of 2)(Track 28 of 98).bin" BINARY
  TRACK 28 AUDIO
    INDEX 01 00:00:00
FILE "Emit Vol. 2 - Inochigake no Tabi (1995)(Koei)(JP)(Disc 2 of 2)(Track 29 of 98).bin" BINARY
  TRACK 29 AUDIO
    INDEX 01 00:00:00
FILE "Emit Vol. 2 - Inochigake no Tabi (1995)(Koei)(JP)(Disc 2 of 2)(Track 30 of 98).bin" BINARY
  TRACK 30 AUDIO
    INDEX 00 00:00:00
    INDEX 01 00:02:00
FILE "Emit Vol. 2 - Inochigake no Tabi (1995)(Koei)(JP)(Disc 2 of 2)(Track 31 of 98).bin" BINARY
  TRACK 31 AUDIO
    INDEX 00 00:00:00
    INDEX 01 00:02:00
FILE "Emit Vol. 2 - Inochigake no Tabi (1995)(Koei)(JP)(Disc 2 of 2)(Track 32 of 98).bin" BINARY
  TRACK 32 AUDIO
    INDEX 00 00:00:00
    INDEX 01 00:02:00
FILE "Emit Vol. 2 - Inochigake no Tabi (1995)(Koei)(JP)(Disc 2 of 2)(Track 33 of 98).bin" BINARY
  TRACK 33 AUDIO
    INDEX 00 00:00:00
    INDEX 01 00:02:00
FILE "Emit Vol. 2 - Inochigake no Tabi (1995)(Koei)(JP)(Disc 2 of 2)(Track 34 of 98).bin" BINARY
  TRACK 34 AUDIO
    INDEX 00 00:00:00
    INDEX 01 00:02:00
FILE "Emit Vol. 2 - Inochigake no Tabi (1995)(Koei)(JP)(Disc 2 of 2)(Track 35 of 98).bin" BINARY
  TRACK 35 AUDIO
    INDEX 00 00:00:00
    INDEX 01 00:02:00
FILE "Emit Vol. 2 - Inochigake no Tabi (1995)(Koei)(JP)(Disc 2 of 2)(Track 36 of 98).bin" BINARY
  TRACK 36 AUDIO
    INDEX 00 00:00:00
    INDEX 01 00:02:00
FILE "Emit Vol. 2 - Inochigake no Tabi (1995)(Koei)(JP)(Disc 2 of 2)(Track 37 of 98).bin" BINARY
  TRACK 37 AUDIO
    INDEX 01 00:00:00
FILE "Emit Vol. 2 - Inochigake no Tabi (1995)(Koei)(JP)(Disc 2 of 2)(Track 38 of 98).bin" BINARY
  TRACK 38 AUDIO
    INDEX 01 00:00:00
FILE "Emit Vol. 2 - Inochigake no Tabi (1995)(Koei)(JP)(Disc 2 of 2)(Track 39 of 98).bin" BINARY
  TRACK 39 AUDIO
    INDEX 01 00:00:00
FILE "Emit Vol. 2 - Inochigake no Tabi (1995)(Koei)(JP)(Disc 2 of 2)(Track 40 of 98).bin" BINARY
  TRACK 40 AUDIO
    INDEX 01 00:00:00
FILE "Emit Vol. 2 - Inochigake no Tabi (1995)(Koei)(JP)(Disc 2 of 2)(Track 41 of 98).bin" BINARY
  TRACK 41 AUDIO
    INDEX 01 00:00:00
FILE "Emit Vol. 2 - Inochigake no Tabi (1995)(Koei)(JP)(Disc 2 of 2)(Track 42 of 98).bin" BINARY
  TRACK 42 AUDIO
    INDEX 00 00:00:00
    INDEX 01 00:02:00
FILE "Emit Vol. 2 - Inochigake no Tabi (1995)(Koei)(JP)(Disc 2 of 2)(Track 43 of 98).bin" BINARY
  TRACK 43 AUDIO
    INDEX 01 00:00:00
FILE "Emit Vol. 2 - Inochigake no Tabi (1995)(Koei)(JP)(Disc 2 of 2)(Track 44 of 98).bin" BINARY
  TRACK 44 AUDIO
    INDEX 01 00:00:00
FILE "Emit Vol. 2 - Inochigake no Tabi (1995)(Koei)(JP)(Disc 2 of 2)(Track 45 of 98).bin" BINARY
  TRACK 45 AUDIO
    INDEX 01 00:00:00
FILE "Emit Vol. 2 - Inochigake no Tabi (1995)(Koei)(JP)(Disc 2 of 2)(Track 46 of 98).bin" BINARY
  TRACK 46 AUDIO
    INDEX 01 00:00:00
FILE "Emit Vol. 2 - Inochigake no Tabi (1995)(Koei)(JP)(Disc 2 of 2)(Track 47 of 98).bin" BINARY
  TRACK 47 AUDIO
    INDEX 01 00:00:00
FILE "Emit Vol. 2 - Inochigake no Tabi (1995)(Koei)(JP)(Disc 2 of 2)(Track 48 of 98).bin" BINARY
  TRACK 48 AUDIO
    INDEX 00 00:00:00
    INDEX 01 00:02:00
FILE "Emit Vol. 2 - Inochigake no Tabi (1995)(Koei)(JP)(Disc 2 of 2)(Track 49 of 98).bin" BINARY
  TRACK 49 AUDIO
    INDEX 00 00:00:00
    INDEX 01 00:02:00
FILE "Emit Vol. 2 - Inochigake no Tabi (1995)(Koei)(JP)(Disc 2 of 2)(Track 50 of 98).bin" BINARY
  TRACK 50 AUDIO
    INDEX 00 00:00:00
    INDEX 01 00:02:00
FILE "Emit Vol. 2 - Inochigake no Tabi (1995)(Koei)(JP)(Disc 2 of 2)(Track 51 of 98).bin" BINARY
  TRACK 51 AUDIO
    INDEX 00 00:00:00
    INDEX 01 00:02:00
FILE "Emit Vol. 2 - Inochigake no Tabi (1995)(Koei)(JP)(Disc 2 of 2)(Track 52 of 98).bin" BINARY
  TRACK 52 AUDIO
    INDEX 01 00:00:00
FILE "Emit Vol. 2 - Inochigake no Tabi (1995)(Koei)(JP)(Disc 2 of 2)(Track 53 of 98).bin" BINARY
  TRACK 53 AUDIO
    INDEX 01 00:00:00
FILE "Emit Vol. 2 - Inochigake no Tabi (1995)(Koei)(JP)(Disc 2 of 2)(Track 54 of 98).bin" BINARY
  TRACK 54 AUDIO
    INDEX 01 00:00:00
FILE "Emit Vol. 2 - Inochigake no Tabi (1995)(Koei)(JP)(Disc 2 of 2)(Track 55 of 98).bin" BINARY
  TRACK 55 AUDIO
    INDEX 01 00:00:00
FILE "Emit Vol. 2 - Inochigake no Tabi (1995)(Koei)(JP)(Disc 2 of 2)(Track 56 of 98).bin" BINARY
  TRACK 56 AUDIO
    INDEX 01 00:00:00
FILE "Emit Vol. 2 - Inochigake no Tabi (1995)(Koei)(JP)(Disc 2 of 2)(Track 57 of 98).bin" BINARY
  TRACK 57 AUDIO
    INDEX 01 00:00:00
FILE "Emit Vol. 2 - Inochigake no Tabi (1995)(Koei)(JP)(Disc 2 of 2)(Track 58 of 98).bin" BINARY
  TRACK 58 AUDIO
    INDEX 00 00:00:00
    INDEX 01 00:02:00
FILE "Emit Vol. 2 - Inochigake no Tabi (1995)(Koei)(JP)(Disc 2 of 2)(Track 59 of 98).bin" BINARY
  TRACK 59 AUDIO
    INDEX 01 00:00:00
FILE "Emit Vol. 2 - Inochigake no Tabi (1995)(Koei)(JP)(Disc 2 of 2)(Track 60 of 98).bin" BINARY
  TRACK 60 AUDIO
    INDEX 01 00:00:00
FILE "Emit Vol. 2 - Inochigake no Tabi (1995)(Koei)(JP)(Disc 2 of 2)(Track 61 of 98).bin" BINARY
  TRACK 61 AUDIO
    INDEX 01 00:00:00
FILE "Emit Vol. 2 - Inochigake no Tabi (1995)(Koei)(JP)(Disc 2 of 2)(Track 62 of 98).bin" BINARY
  TRACK 62 AUDIO
    INDEX 01 00:00:00
FILE "Emit Vol. 2 - Inochigake no Tabi (1995)(Koei)(JP)(Disc 2 of 2)(Track 63 of 98).bin" BINARY
  TRACK 63 AUDIO
    INDEX 01 00:00:00
FILE "Emit Vol. 2 - Inochigake no Tabi (1995)(Koei)(JP)(Disc 2 of 2)(Track 64 of 98).bin" BINARY
  TRACK 64 AUDIO
    INDEX 01 00:00:00
FILE "Emit Vol. 2 - Inochigake no Tabi (1995)(Koei)(JP)(Disc 2 of 2)(Track 65 of 98).bin" BINARY
  TRACK 65 AUDIO
    INDEX 00 00:00:00
    INDEX 01 00:02:00
FILE "Emit Vol. 2 - Inochigake no Tabi (1995)(Koei)(JP)(Disc 2 of 2)(Track 66 of 98).bin" BINARY
  TRACK 66 AUDIO
    INDEX 00 00:00:00
    INDEX 01 00:02:00
FILE "Emit Vol. 2 - Inochigake no Tabi (1995)(Koei)(JP)(Disc 2 of 2)(Track 67 of 98).bin" BINARY
  TRACK 67 AUDIO
    INDEX 00 00:00:00
    INDEX 01 00:02:00
FILE "Emit Vol. 2 - Inochigake no Tabi (1995)(Koei)(JP)(Disc 2 of 2)(Track 68 of 98).bin" BINARY
  TRACK 68 AUDIO
    INDEX 00 00:00:00
    INDEX 01 00:02:00
FILE "Emit Vol. 2 - Inochigake no Tabi (1995)(Koei)(JP)(Disc 2 of 2)(Track 69 of 98).bin" BINARY
  TRACK 69 AUDIO
    INDEX 01 00:00:00
FILE "Emit Vol. 2 - Inochigake no Tabi (1995)(Koei)(JP)(Disc 2 of 2)(Track 70 of 98).bin" BINARY
  TRACK 70 AUDIO
    INDEX 01 00:00:00
FILE "Emit Vol. 2 - Inochigake no Tabi (1995)(Koei)(JP)(Disc 2 of 2)(Track 71 of 98).bin" BINARY
  TRACK 71 AUDIO
    INDEX 00 00:00:00
    INDEX 01 00:02:00
FILE "Emit Vol. 2 - Inochigake no Tabi (1995)(Koei)(JP)(Disc 2 of 2)(Track 72 of 98).bin" BINARY
  TRACK 72 AUDIO
    INDEX 01 00:00:00
FILE "Emit Vol. 2 - Inochigake no Tabi (1995)(Koei)(JP)(Disc 2 of 2)(Track 73 of 98).bin" BINARY
  TRACK 73 AUDIO
    INDEX 01 00:00:00
FILE "Emit Vol. 2 - Inochigake no Tabi (1995)(Koei)(JP)(Disc 2 of 2)(Track 74 of 98).bin" BINARY
  TRACK 74 AUDIO
    INDEX 00 00:00:00
    INDEX 01 00:02:00
FILE "Emit Vol. 2 - Inochigake no Tabi (1995)(Koei)(JP)(Disc 2 of 2)(Track 75 of 98).bin" BINARY
  TRACK 75 AUDIO
    INDEX 00 00:00:00
    INDEX 01 00:02:00
FILE "Emit Vol. 2 - Inochigake no Tabi (1995)(Koei)(JP)(Disc 2 of 2)(Track 76 of 98).bin" BINARY
  TRACK 76 AUDIO
    INDEX 01 00:00:00
FILE "Emit Vol. 2 - Inochigake no Tabi (1995)(Koei)(JP)(Disc 2 of 2)(Track 77 of 98).bin" BINARY
  TRACK 77 AUDIO
    INDEX 01 00:00:00
FILE "Emit Vol. 2 - Inochigake no Tabi (1995)(Koei)(JP)(Disc 2 of 2)(Track 78 of 98).bin" BINARY
  TRACK 78 AUDIO
    INDEX 00 00:00:00
    INDEX 01 00:02:00
FILE "Emit Vol. 2 - Inochigake no Tabi (1995)(Koei)(JP)(Disc 2 of 2)(Track 79 of 98).bin" BINARY
  TRACK 79 AUDIO
    INDEX 01 00:00:00
FILE "Emit Vol. 2 - Inochigake no Tabi (1995)(Koei)(JP)(Disc 2 of 2)(Track 80 of 98).bin" BINARY
  TRACK 80 AUDIO
    INDEX 01 00:00:00
FILE "Emit Vol. 2 - Inochigake no Tabi (1995)(Koei)(JP)(Disc 2 of 2)(Track 81 of 98).bin" BINARY
  TRACK 81 AUDIO
    INDEX 00 00:00:00
    INDEX 01 00:02:00
FILE "Emit Vol. 2 - Inochigake no Tabi (1995)(Koei)(JP)(Disc 2 of 2)(Track 82 of 98).bin" BINARY
  TRACK 82 AUDIO
    INDEX 00 00:00:00
    INDEX 01 00:02:00
FILE "Emit Vol. 2 - Inochigake no Tabi (1995)(Koei)(JP)(Disc 2 of 2)(Track 83 of 98).bin" BINARY
  TRACK 83 AUDIO
    INDEX 00 00:00:00
    INDEX 01 00:02:00
FILE "Emit Vol. 2 - Inochigake no Tabi (1995)(Koei)(JP)(Disc 2 of 2)(Track 84 of 98).bin" BINARY
  TRACK 84 AUDIO
    INDEX 00 00:00:00
    INDEX 01 00:02:00
FILE "Emit Vol. 2 - Inochigake no Tabi (1995)(Koei)(JP)(Disc 2 of 2)(Track 85 of 98).bin" BINARY
  TRACK 85 AUDIO
    INDEX 01 00:00:00
FILE "Emit Vol. 2 - Inochigake no Tabi (1995)(Koei)(JP)(Disc 2 of 2)(Track 86 of 98).bin" BINARY
  TRACK 86 AUDIO
    INDEX 01 00:00:00
FILE "Emit Vol. 2 - Inochigake no Tabi (1995)(Koei)(JP)(Disc 2 of 2)(Track 87 of 98).bin" BINARY
  TRACK 87 AUDIO
    INDEX 00 00:00:00
    INDEX 01 00:02:00
FILE "Emit Vol. 2 - Inochigake no Tabi (1995)(Koei)(JP)(Disc 2 of 2)(Track 88 of 98).bin" BINARY
  TRACK 88 AUDIO
    INDEX 01 00:00:00
FILE "Emit Vol. 2 - Inochigake no Tabi (1995)(Koei)(JP)(Disc 2 of 2)(Track 89 of 98).bin" BINARY
  TRACK 89 AUDIO
    INDEX 01 00:00:00
FILE "Emit Vol. 2 - Inochigake no Tabi (1995)(Koei)(JP)(Disc 2 of 2)(Track 90 of 98).bin" BINARY
  TRACK 90 AUDIO
    INDEX 00 00:00:00
    INDEX 01 00:02:00
FILE "Emit Vol. 2 - Inochigake no Tabi (1995)(Koei)(JP)(Disc 2 of 2)(Track 91 of 98).bin" BINARY
  TRACK 91 AUDIO
    INDEX 01 00:00:00
FILE "Emit Vol. 2 - Inochigake no Tabi (1995)(Koei)(JP)(Disc 2 of 2)(Track 92 of 98).bin" BINARY
  TRACK 92 AUDIO
    INDEX 01 00:00:00
FILE "Emit Vol. 2 - Inochigake no Tabi (1995)(Koei)(JP)(Disc 2 of 2)(Track 93 of 98).bin" BINARY
  TRACK 93 AUDIO
    INDEX 01 00:00:00
FILE "Emit Vol. 2 - Inochigake no Tabi (1995)(Koei)(JP)(Disc 2 of 2)(Track 94 of 98).bin" BINARY
  TRACK 94 AUDIO
    INDEX 00 00:00:00
    INDEX 01 00:02:00
FILE "Emit Vol. 2 - Inochigake no Tabi (1995)(Koei)(JP)(Disc 2 of 2)(Track 95 of 98).bin" BINARY
  TRACK 95 AUDIO
    INDEX 01 00:00:00
FILE "Emit Vol. 2 - Inochigake no Tabi (1995)(Koei)(JP)(Disc 2 of 2)(Track 96 of 98).bin" BINARY
  TRACK 96 AUDIO
    INDEX 01 00:00:00
FILE "Emit Vol. 2 - Inochigake no Tabi (1995)(Koei)(JP)(Disc 2 of 2)(Track 97 of 98).bin" BINARY
  TRACK 97 AUDIO
    INDEX 01 00:00:00
FILE "Emit Vol. 2 - Inochigake no Tabi (1995)(Koei)(JP)(Disc 2 of 2)(Track 98 of 98).bin" BINARY
  TRACK 98 AUDIO
    INDEX 00 00:00:00
    INDEX 01 00:02:00
